<mxfile host="Electron" modified="2023-11-25T15:18:38.823Z" agent="Mozilla/5.0 (Windows NT 10.0; Win64; x64) AppleWebKit/537.36 (KHTML, like Gecko) draw.io/21.5.1 Chrome/112.0.5615.204 Electron/24.6.0 Safari/537.36" etag="nb9WwnATe5JrbQJ_jwRV" version="21.5.1" type="device">
  <diagram name="Pagina-1" id="gTgShQ79xlWHM4BhMIFA">
    <mxGraphModel dx="1418" dy="828" grid="1" gridSize="10" guides="1" tooltips="1" connect="1" arrows="1" fold="1" page="1" pageScale="1" pageWidth="1169" pageHeight="827" math="0" shadow="0">
      <root>
        <mxCell id="0" />
        <mxCell id="1" parent="0" />
        <mxCell id="z40qCSQj4X_T2gMoB95q-1" value="" style="rounded=0;whiteSpace=wrap;html=1;strokeColor=none;fillColor=#FFFFFC;movable=0;resizable=0;rotatable=0;deletable=0;editable=0;locked=1;connectable=0;" parent="1" vertex="1">
          <mxGeometry y="1" width="1168" height="825" as="geometry" />
        </mxCell>
        <mxCell id="1OhWma3IbFcb_nB9q1dT-1" value="&lt;font color=&quot;#0d0d0d&quot;&gt;Datore di Lavoro&lt;/font&gt;" style="shape=umlActor;verticalLabelPosition=bottom;verticalAlign=top;html=1;fillColor=#FFFFFC;strokeColor=#0D0D0D;" parent="1" vertex="1">
          <mxGeometry x="114" y="52" width="40" height="80" as="geometry" />
        </mxCell>
        <mxCell id="1OhWma3IbFcb_nB9q1dT-13" value="" style="endArrow=none;dashed=1;html=1;rounded=0;strokeColor=#0D0D0D;" parent="1" source="1OhWma3IbFcb_nB9q1dT-21" edge="1">
          <mxGeometry width="50" height="50" relative="1" as="geometry">
            <mxPoint x="293.65999999999997" y="572" as="sourcePoint" />
            <mxPoint x="293.65999999999997" y="132" as="targetPoint" />
          </mxGeometry>
        </mxCell>
        <mxCell id="1OhWma3IbFcb_nB9q1dT-14" value="" style="endArrow=none;dashed=1;html=1;rounded=0;entryX=0.492;entryY=0.997;entryDx=0;entryDy=0;strokeColor=#0D0D0D;entryPerimeter=0;" parent="1" source="1OhWma3IbFcb_nB9q1dT-24" target="1OhWma3IbFcb_nB9q1dT-37" edge="1">
          <mxGeometry width="50" height="50" relative="1" as="geometry">
            <mxPoint x="494" y="622" as="sourcePoint" />
            <mxPoint x="493.75" y="172" as="targetPoint" />
          </mxGeometry>
        </mxCell>
        <mxCell id="1OhWma3IbFcb_nB9q1dT-15" value="" style="endArrow=none;dashed=1;html=1;rounded=0;strokeColor=#0D0D0D;entryX=0.587;entryY=1.046;entryDx=0;entryDy=0;entryPerimeter=0;" parent="1" source="1OhWma3IbFcb_nB9q1dT-30" target="1OhWma3IbFcb_nB9q1dT-39" edge="1">
          <mxGeometry width="50" height="50" relative="1" as="geometry">
            <mxPoint x="694" y="612" as="sourcePoint" />
            <mxPoint x="694" y="211" as="targetPoint" />
          </mxGeometry>
        </mxCell>
        <mxCell id="1OhWma3IbFcb_nB9q1dT-16" value="" style="endArrow=none;dashed=1;html=1;rounded=0;entryX=0.5;entryY=1;entryDx=0;entryDy=0;strokeColor=#0D0D0D;" parent="1" source="1OhWma3IbFcb_nB9q1dT-52" target="1OhWma3IbFcb_nB9q1dT-36" edge="1">
          <mxGeometry width="50" height="50" relative="1" as="geometry">
            <mxPoint x="854" y="731" as="sourcePoint" />
            <mxPoint x="853.5799999999999" y="301" as="targetPoint" />
          </mxGeometry>
        </mxCell>
        <mxCell id="1OhWma3IbFcb_nB9q1dT-17" value="" style="endArrow=none;dashed=1;html=1;rounded=0;strokeColor=#0D0D0D;" parent="1" source="1OhWma3IbFcb_nB9q1dT-18" edge="1">
          <mxGeometry width="50" height="50" relative="1" as="geometry">
            <mxPoint x="133.66" y="602" as="sourcePoint" />
            <mxPoint x="133.66" y="162" as="targetPoint" />
          </mxGeometry>
        </mxCell>
        <mxCell id="1OhWma3IbFcb_nB9q1dT-19" value="" style="endArrow=none;dashed=1;html=1;rounded=0;strokeColor=#0D0D0D;" parent="1" target="1OhWma3IbFcb_nB9q1dT-18" edge="1">
          <mxGeometry width="50" height="50" relative="1" as="geometry">
            <mxPoint x="134" y="820" as="sourcePoint" />
            <mxPoint x="133.66" y="162" as="targetPoint" />
          </mxGeometry>
        </mxCell>
        <mxCell id="1OhWma3IbFcb_nB9q1dT-18" value="" style="rounded=0;whiteSpace=wrap;html=1;fillColor=#0D0D0D;" parent="1" vertex="1">
          <mxGeometry x="129" y="172" width="10" height="628" as="geometry" />
        </mxCell>
        <mxCell id="1OhWma3IbFcb_nB9q1dT-20" value="" style="endArrow=classic;html=1;rounded=0;strokeColor=#0D0D0D;" parent="1" edge="1">
          <mxGeometry width="50" height="50" relative="1" as="geometry">
            <mxPoint x="139" y="212" as="sourcePoint" />
            <mxPoint x="284" y="212" as="targetPoint" />
          </mxGeometry>
        </mxCell>
        <mxCell id="1OhWma3IbFcb_nB9q1dT-22" value="" style="endArrow=none;dashed=1;html=1;rounded=0;strokeColor=#0D0D0D;" parent="1" target="1OhWma3IbFcb_nB9q1dT-21" edge="1">
          <mxGeometry width="50" height="50" relative="1" as="geometry">
            <mxPoint x="294" y="820" as="sourcePoint" />
            <mxPoint x="293.65999999999997" y="132" as="targetPoint" />
          </mxGeometry>
        </mxCell>
        <mxCell id="1OhWma3IbFcb_nB9q1dT-21" value="" style="rounded=0;whiteSpace=wrap;html=1;" parent="1" vertex="1">
          <mxGeometry x="289" y="170" width="10" height="82" as="geometry" />
        </mxCell>
        <mxCell id="1OhWma3IbFcb_nB9q1dT-23" value="&lt;font style=&quot;font-size: 10px;&quot; face=&quot;Verdana&quot;&gt;press()&lt;/font&gt;" style="text;html=1;strokeColor=none;fillColor=none;align=center;verticalAlign=middle;whiteSpace=wrap;rounded=0;fontColor=#0D0D0D;" parent="1" vertex="1">
          <mxGeometry x="193" y="195" width="40" height="11" as="geometry" />
        </mxCell>
        <mxCell id="1OhWma3IbFcb_nB9q1dT-25" value="" style="endArrow=none;dashed=1;html=1;rounded=0;strokeColor=#0D0D0D;" parent="1" target="1OhWma3IbFcb_nB9q1dT-24" edge="1">
          <mxGeometry width="50" height="50" relative="1" as="geometry">
            <mxPoint x="494" y="820" as="sourcePoint" />
            <mxPoint x="493.90999999999997" y="182" as="targetPoint" />
          </mxGeometry>
        </mxCell>
        <mxCell id="1OhWma3IbFcb_nB9q1dT-24" value="" style="rounded=0;whiteSpace=wrap;html=1;" parent="1" vertex="1">
          <mxGeometry x="489.25" y="225" width="10" height="37" as="geometry" />
        </mxCell>
        <mxCell id="1OhWma3IbFcb_nB9q1dT-26" value="" style="endArrow=classic;html=1;rounded=0;fontColor=#0D0D0D;strokeColor=#0D0D0D;" parent="1" edge="1">
          <mxGeometry width="50" height="50" relative="1" as="geometry">
            <mxPoint x="139" y="282.16" as="sourcePoint" />
            <mxPoint x="684" y="282.16" as="targetPoint" />
          </mxGeometry>
        </mxCell>
        <mxCell id="1OhWma3IbFcb_nB9q1dT-28" value="&lt;font color=&quot;#0d0d0d&quot; style=&quot;font-size: 10px; background-color: rgb(255, 255, 252);&quot; face=&quot;Verdana&quot;&gt;&amp;lt;&amp;lt;create&amp;gt;&amp;gt;&lt;/font&gt;" style="endArrow=open;endSize=12;dashed=1;html=1;rounded=0;strokeColor=#0D0D0D;" parent="1" edge="1">
          <mxGeometry width="160" relative="1" as="geometry">
            <mxPoint x="299" y="225.99999999999994" as="sourcePoint" />
            <mxPoint x="484" y="226.33999999999997" as="targetPoint" />
          </mxGeometry>
        </mxCell>
        <mxCell id="1OhWma3IbFcb_nB9q1dT-29" value="&lt;font style=&quot;font-size: 10px;&quot; face=&quot;Verdana&quot;&gt;&amp;lt;&amp;lt;create&amp;gt;&amp;gt;&lt;/font&gt;" style="endArrow=open;endSize=12;dashed=1;html=1;rounded=0;strokeColor=#0D0D0D;fontColor=#0D0D0D;labelBackgroundColor=#FFFFFC;" parent="1" edge="1">
          <mxGeometry width="160" relative="1" as="geometry">
            <mxPoint x="499.25" y="251.42999999999995" as="sourcePoint" />
            <mxPoint x="684.25" y="251.76999999999998" as="targetPoint" />
          </mxGeometry>
        </mxCell>
        <mxCell id="1OhWma3IbFcb_nB9q1dT-31" value="" style="endArrow=none;dashed=1;html=1;rounded=0;strokeColor=#0D0D0D;" parent="1" source="1OhWma3IbFcb_nB9q1dT-56" target="1OhWma3IbFcb_nB9q1dT-30" edge="1">
          <mxGeometry width="50" height="50" relative="1" as="geometry">
            <mxPoint x="694" y="691" as="sourcePoint" />
            <mxPoint x="693.66" y="172" as="targetPoint" />
          </mxGeometry>
        </mxCell>
        <mxCell id="1OhWma3IbFcb_nB9q1dT-30" value="" style="rounded=0;whiteSpace=wrap;html=1;" parent="1" vertex="1">
          <mxGeometry x="689" y="250" width="10" height="321" as="geometry" />
        </mxCell>
        <mxCell id="1OhWma3IbFcb_nB9q1dT-32" value="&lt;font style=&quot;font-size: 10px;&quot; face=&quot;Verdana&quot;&gt;fillOfferForm()&lt;/font&gt;" style="text;html=1;strokeColor=none;fillColor=none;align=center;verticalAlign=middle;whiteSpace=wrap;rounded=0;labelBackgroundColor=#FFFFFC;fontColor=#0D0D0D;" parent="1" vertex="1">
          <mxGeometry x="173" y="267" width="80" height="11" as="geometry" />
        </mxCell>
        <mxCell id="1OhWma3IbFcb_nB9q1dT-33" value="" style="endArrow=classic;html=1;rounded=0;strokeColor=#0D0D0D;" parent="1" edge="1">
          <mxGeometry width="50" height="50" relative="1" as="geometry">
            <mxPoint x="139" y="371" as="sourcePoint" />
            <mxPoint x="684" y="371" as="targetPoint" />
          </mxGeometry>
        </mxCell>
        <mxCell id="1OhWma3IbFcb_nB9q1dT-34" value="&lt;font style=&quot;font-size: 10px;&quot; face=&quot;Verdana&quot;&gt;submit(&lt;br&gt;&lt;span style=&quot;white-space: pre;&quot;&gt;&#x9;&lt;/span&gt;title,&lt;br&gt;&lt;span style=&quot;white-space: pre;&quot;&gt;&#x9;&lt;/span&gt;description.&lt;br&gt;&lt;span style=&quot;white-space: pre;&quot;&gt;&#x9;&lt;/span&gt;requirements&lt;br&gt;)&lt;/font&gt;" style="text;html=1;strokeColor=none;fillColor=none;align=left;verticalAlign=middle;whiteSpace=wrap;rounded=0;fontColor=#0D0D0D;" parent="1" vertex="1">
          <mxGeometry x="174.25" y="288" width="100" height="84" as="geometry" />
        </mxCell>
        <mxCell id="1OhWma3IbFcb_nB9q1dT-35" value="" style="rounded=0;whiteSpace=wrap;html=1;" parent="1" vertex="1">
          <mxGeometry x="488.75" y="381" width="10" height="419" as="geometry" />
        </mxCell>
        <mxCell id="1OhWma3IbFcb_nB9q1dT-36" value="Offer" style="ellipse;shape=umlEntity;whiteSpace=wrap;html=1;strokeColor=#0D0D0D;fontColor=#0D0D0D;fillColor=#FFFFFC;" parent="1" vertex="1">
          <mxGeometry x="824" y="56" width="80" height="80" as="geometry" />
        </mxCell>
        <mxCell id="1OhWma3IbFcb_nB9q1dT-37" value="CreateOffer&lt;br&gt;Control" style="ellipse;shape=umlControl;whiteSpace=wrap;html=1;strokeColor=#0D0D0D;fontColor=#0D0D0D;fillColor=#FFFFFC;" parent="1" vertex="1">
          <mxGeometry x="454.94000000000005" y="46" width="77.62" height="90" as="geometry" />
        </mxCell>
        <mxCell id="1OhWma3IbFcb_nB9q1dT-38" value="&lt;font color=&quot;#0d0d0d&quot;&gt;OfferButton&lt;/font&gt;" style="shape=umlBoundary;whiteSpace=wrap;html=1;strokeColor=#0D0D0D;fillColor=#FFFFFC;" parent="1" vertex="1">
          <mxGeometry x="236" y="51" width="100" height="80" as="geometry" />
        </mxCell>
        <mxCell id="1OhWma3IbFcb_nB9q1dT-39" value="OfferForm" style="shape=umlBoundary;whiteSpace=wrap;html=1;strokeColor=#0D0D0D;fontColor=#0D0D0D;fillColor=#FFFFFC;" parent="1" vertex="1">
          <mxGeometry x="635" y="56" width="100" height="80" as="geometry" />
        </mxCell>
        <mxCell id="1OhWma3IbFcb_nB9q1dT-41" value="&lt;font style=&quot;font-size: 10px;&quot; face=&quot;Verdana&quot;&gt;[ &lt;br&gt;&lt;span style=&quot;white-space: pre;&quot;&gt;&#x9;&lt;/span&gt;title != null &amp;amp;&amp;amp;&lt;br&gt;&lt;span style=&quot;white-space: pre;&quot;&gt;&#x9;&lt;/span&gt;description != null &amp;amp;&amp;amp;&lt;br&gt;&lt;span style=&quot;white-space: pre;&quot;&gt;&#x9;&lt;/span&gt;requirements != null &lt;br&gt;]: createOffer(&lt;br&gt;&lt;span style=&quot;white-space: pre;&quot;&gt;&#x9;&lt;/span&gt;title, &lt;br&gt;&lt;span style=&quot;white-space: pre;&quot;&gt;&#x9;&lt;/span&gt;description,&lt;br&gt;&lt;span style=&quot;white-space: pre;&quot;&gt;&#x9;&lt;/span&gt;requirements&lt;br&gt;)&lt;/font&gt;" style="text;html=1;strokeColor=none;fillColor=none;align=left;verticalAlign=middle;whiteSpace=wrap;rounded=0;fontColor=#0D0D0D;" parent="1" vertex="1">
          <mxGeometry x="514" y="382" width="150.94" height="130" as="geometry" />
        </mxCell>
        <mxCell id="1OhWma3IbFcb_nB9q1dT-47" value="" style="endArrow=classic;html=1;rounded=0;strokeColor=#0D0D0D;" parent="1" edge="1">
          <mxGeometry width="50" height="50" relative="1" as="geometry">
            <mxPoint x="688" y="531" as="sourcePoint" />
            <mxPoint x="504" y="531" as="targetPoint" />
          </mxGeometry>
        </mxCell>
        <mxCell id="1OhWma3IbFcb_nB9q1dT-49" value="" style="endArrow=classic;html=1;rounded=0;strokeColor=#0D0D0D;" parent="1" edge="1">
          <mxGeometry width="50" height="50" relative="1" as="geometry">
            <mxPoint x="501.97" y="731" as="sourcePoint" />
            <mxPoint x="676.97" y="731" as="targetPoint" />
          </mxGeometry>
        </mxCell>
        <mxCell id="1OhWma3IbFcb_nB9q1dT-50" value="&lt;font face=&quot;Verdana&quot;&gt;&lt;span style=&quot;font-size: 10px;&quot;&gt;&amp;lt;&amp;lt;destroy&amp;gt;&amp;gt;&lt;/span&gt;&lt;/font&gt;" style="text;html=1;strokeColor=none;fillColor=none;align=center;verticalAlign=middle;whiteSpace=wrap;rounded=0;fontColor=#0D0D0D;" parent="1" vertex="1">
          <mxGeometry x="569.47" y="710" width="40" height="11" as="geometry" />
        </mxCell>
        <mxCell id="1OhWma3IbFcb_nB9q1dT-53" value="" style="endArrow=none;dashed=1;html=1;rounded=0;entryX=0.5;entryY=1;entryDx=0;entryDy=0;strokeColor=#0D0D0D;" parent="1" target="1OhWma3IbFcb_nB9q1dT-52" edge="1">
          <mxGeometry width="50" height="50" relative="1" as="geometry">
            <mxPoint x="864" y="820" as="sourcePoint" />
            <mxPoint x="854" y="292" as="targetPoint" />
          </mxGeometry>
        </mxCell>
        <mxCell id="1OhWma3IbFcb_nB9q1dT-52" value="" style="rounded=0;whiteSpace=wrap;html=1;" parent="1" vertex="1">
          <mxGeometry x="859" y="631.5" width="10" height="40" as="geometry" />
        </mxCell>
        <mxCell id="1OhWma3IbFcb_nB9q1dT-54" value="" style="endArrow=classic;html=1;rounded=0;strokeColor=#0D0D0D;entryX=0;entryY=0.5;entryDx=0;entryDy=0;" parent="1" target="1OhWma3IbFcb_nB9q1dT-52" edge="1">
          <mxGeometry width="50" height="50" relative="1" as="geometry">
            <mxPoint x="499.25" y="651" as="sourcePoint" />
            <mxPoint x="848.25" y="651" as="targetPoint" />
          </mxGeometry>
        </mxCell>
        <mxCell id="1OhWma3IbFcb_nB9q1dT-55" value="" style="endArrow=none;dashed=1;html=1;rounded=0;strokeColor=#0D0D0D;entryX=0.491;entryY=0.371;entryDx=0;entryDy=0;entryPerimeter=0;" parent="1" target="1OhWma3IbFcb_nB9q1dT-51" edge="1">
          <mxGeometry width="50" height="50" relative="1" as="geometry">
            <mxPoint x="694" y="691" as="sourcePoint" />
            <mxPoint x="694" y="571" as="targetPoint" />
          </mxGeometry>
        </mxCell>
        <mxCell id="1OhWma3IbFcb_nB9q1dT-51" value="" style="shape=umlDestroy;whiteSpace=wrap;html=1;strokeWidth=3;targetShapes=umlLifeline;strokeColor=#0D0D0D;" parent="1" vertex="1">
          <mxGeometry x="679" y="721" width="30" height="30" as="geometry" />
        </mxCell>
        <mxCell id="1OhWma3IbFcb_nB9q1dT-56" value="" style="rounded=0;whiteSpace=wrap;html=1;" parent="1" vertex="1">
          <mxGeometry x="689" y="671.5" width="10" height="30" as="geometry" />
        </mxCell>
        <mxCell id="1OhWma3IbFcb_nB9q1dT-58" value="&lt;font face=&quot;Verdana&quot;&gt;&lt;span style=&quot;font-size: 10px;&quot;&gt;addOffer(&lt;br&gt;&lt;span style=&quot;white-space: pre;&quot;&gt;&#x9;&lt;/span&gt;title,&lt;br&gt;&lt;span style=&quot;white-space: pre;&quot;&gt;&#x9;&lt;/span&gt;description,&lt;br&gt;&lt;span style=&quot;white-space: pre;&quot;&gt;&#x9;&lt;/span&gt;requirements&lt;br&gt;)&lt;/span&gt;&lt;/font&gt;" style="text;html=1;strokeColor=none;fillColor=none;align=left;verticalAlign=middle;whiteSpace=wrap;rounded=0;fontColor=#0D0D0D;" parent="1" vertex="1">
          <mxGeometry x="514.25" y="571" width="109.75" height="80" as="geometry" />
        </mxCell>
        <mxCell id="2H82K0ncu7nyE7OQsaqN-1" value="Success&lt;br&gt;Message" style="shape=umlBoundary;whiteSpace=wrap;html=1;strokeColor=#0D0D0D;fontColor=#0D0D0D;fillColor=#FFFFFC;" parent="1" vertex="1">
          <mxGeometry x="994" y="56" width="100" height="80" as="geometry" />
        </mxCell>
        <mxCell id="2H82K0ncu7nyE7OQsaqN-2" value="" style="endArrow=none;dashed=1;html=1;rounded=0;entryX=0.595;entryY=0.978;entryDx=0;entryDy=0;strokeColor=#0D0D0D;entryPerimeter=0;" parent="1" target="2H82K0ncu7nyE7OQsaqN-1" edge="1">
          <mxGeometry width="50" height="50" relative="1" as="geometry">
            <mxPoint x="1055" y="820" as="sourcePoint" />
            <mxPoint x="1054" y="136" as="targetPoint" />
          </mxGeometry>
        </mxCell>
        <mxCell id="2H82K0ncu7nyE7OQsaqN-5" value="" style="endArrow=none;dashed=1;html=1;rounded=0;entryX=0.595;entryY=0.978;entryDx=0;entryDy=0;strokeColor=#0D0D0D;entryPerimeter=0;" parent="1" target="2H82K0ncu7nyE7OQsaqN-4" edge="1">
          <mxGeometry width="50" height="50" relative="1" as="geometry">
            <mxPoint x="1054" y="798" as="sourcePoint" />
            <mxPoint x="1054" y="134" as="targetPoint" />
          </mxGeometry>
        </mxCell>
        <mxCell id="2H82K0ncu7nyE7OQsaqN-4" value="" style="rounded=0;whiteSpace=wrap;html=1;" parent="1" vertex="1">
          <mxGeometry x="1050" y="769" width="10" height="31" as="geometry" />
        </mxCell>
        <mxCell id="2H82K0ncu7nyE7OQsaqN-6" value="&lt;font style=&quot;font-size: 10px;&quot; face=&quot;Verdana&quot;&gt;&amp;lt;&amp;lt;create&amp;gt;&amp;gt;&lt;/font&gt;" style="endArrow=open;endSize=12;dashed=1;html=1;rounded=0;strokeColor=#0D0D0D;fontColor=#0D0D0D;labelBackgroundColor=#FFFFFC;" parent="1" edge="1">
          <mxGeometry width="160" relative="1" as="geometry">
            <mxPoint x="498.75" y="770" as="sourcePoint" />
            <mxPoint x="1050" y="770" as="targetPoint" />
          </mxGeometry>
        </mxCell>
      </root>
    </mxGraphModel>
  </diagram>
</mxfile>
